<?xml version="1.0" standalone="no"?>
<!DOCTYPE svg PUBLIC "-//W3C//DTD SVG 20010904//EN"
 "http://www.w3.org/TR/2001/REC-SVG-20010904/DTD/svg10.dtd">
<svg version="1.0" xmlns="http://www.w3.org/2000/svg"
 width="512.000000pt" height="512.000000pt" viewBox="0 0 512.000000 512.000000"
 preserveAspectRatio="xMidYMid meet">
<metadata>
Created by potrace 1.11, written by Peter Selinger 2001-2013
</metadata>
<g transform="translate(0.000000,512.000000) scale(0.100000,-0.100000)"
fill="#000000" stroke="none">
<path d="M2861 4954 c443 -452 740 -896 949 -1420 184 -460 242 -999 164
-1519 -67 -447 -284 -927 -594 -1315 -161 -201 -422 -444 -660 -615 -52 -38
-99 -72 -105 -77 -14 -12 151 0 315 23 1111 157 1996 1041 2160 2159 62 421
17 849 -131 1260 -17 47 -64 153 -104 235 -315 650 -912 1146 -1610 1339 -147
41 -327 73 -454 82 l-86 6 156 -158z"/>
<path d="M1820 5009 c-235 -73 -470 -184 -670 -317 -852 -566 -1281 -1562
-1109 -2572 40 -235 112 -457 224 -685 203 -413 499 -750 885 -1007 142 -95
377 -215 520 -267 147 -53 134 -55 262 38 222 159 491 411 651 611 205 254
377 580 466 878 105 352 117 868 31 1288 -155 757 -477 1362 -1002 1887 -92
92 -173 167 -180 166 -7 0 -42 -9 -78 -20z"/>
</g>
</svg>
