<?xml version="1.0" encoding="iso-8859-1"?>
<!-- Generator: Adobe Illustrator 16.0.0, SVG Export Plug-In . SVG Version: 6.00 Build 0)  -->
<!DOCTYPE svg PUBLIC "-//W3C//DTD SVG 1.1//EN" "http://www.w3.org/Graphics/SVG/1.1/DTD/svg11.dtd">
<svg version="1.1" id="random-icon" xmlns="http://www.w3.org/2000/svg" xmlns:xlink="http://www.w3.org/1999/xlink" x="0px" y="0px" width="124.701px" height="124.701px" viewBox="0 0 124.701 124.701" style="enable-background:new 0 0 124.701 124.701;" xml:space="preserve">

  <path d="M0,30.805c0-0.004,0-0.007,0-0.016c0-0.003,0-0.007,0-0.01V30.805z M118.277,79.685
    c-0.938-3.751-3.908-4.582-6.646-1.841l-4.571,4.568L87.008,62.338l20.064-20.064l4.572,4.572
    c2.737,2.738,5.715,1.911,6.646-1.843l6.201-24.908c0.934-3.756-1.355-6.049-5.113-5.113l-24.93,6.189
    c-3.758,0.931-4.59,3.903-1.849,6.645l4.562,4.555L77.105,52.426L49.103,24.392v-0.595h-0.589l-0.036-0.036l-0.035,0.036H7.009
    c-3.869,0-7.002,3.131-7.009,6.993c0.007,3.869,3.14,6.995,7.009,6.995h35.585l24.559,24.591L42.654,86.872H7.009
    C3.14,86.872,0,90.01,0,93.88v0.004c0,3.866,3.14,7.008,7.009,7.008H49.06v-0.608l27.993-27.99l20.051,20.071l-4.524,4.521
    c-2.734,2.737-1.913,5.711,1.845,6.646l24.94,6.188c3.754,0.935,6.047-1.355,5.113-5.112L118.277,79.685z"/>

</svg>
